HIERARCHY
ROOT hip
{
	OFFSET 0.000000 0.000000 0.000000 
	CHANNELS 6 Xposition Yposition Zposition Xrotation Zrotation Yrotation
	JOINT abdomen
	{
		OFFSET 0.000000 3.402643 0.000000 
		CHANNELS 3 Xrotation Zrotation Yrotation
		JOINT chest
		{
			OFFSET 0.000000 8.438565 -0.680529 
			CHANNELS 3 Xrotation Zrotation Yrotation
			JOINT neck
			{
				OFFSET 0.000000 10.207942 -0.272212 
				CHANNELS 3 Xrotation Zrotation Yrotation
				JOINT head
				{
					OFFSET 0.000000 3.130431 0.000000 
					CHANNELS 3 Xrotation Zrotation Yrotation
					End Site
					{
						OFFSET 0.000000 3.130435 0.000000 
					}
				}
			}
			JOINT lCollar
			{
				OFFSET 3.470700 6.669187 -0.816635 
				CHANNELS 3 Yrotation Zrotation Xrotation
				JOINT lShldr
				{
					OFFSET 3.198488 0.000000 0.000000 
					CHANNELS 3 Zrotation Yrotation Xrotation
					JOINT lForeArm
					{
						OFFSET 10.139888 0.000000 0.000000 
						CHANNELS 3 Yrotation Zrotation Xrotation
						JOINT lHand
						{
							OFFSET 8.370511 0.000000 0.000000 
							CHANNELS 3 Zrotation Yrotation Xrotation
							End Site
							{
								OFFSET 4.083176 0.000000 0.000000 
							}
						}
					}
				}
			}
			JOINT rCollar
			{
				OFFSET -3.470700 6.669187 -0.816635 
				CHANNELS 3 Yrotation Zrotation Xrotation
				JOINT rShldr
				{
					OFFSET -3.198488 0.000000 0.000000 
					CHANNELS 3 Zrotation Yrotation Xrotation
					JOINT rForeArm
					{
						OFFSET -10.139888 0.000000 0.000000 
						CHANNELS 3 Yrotation Zrotation Xrotation
						JOINT rHand
						{
							OFFSET -8.370511 0.000000 0.000000 
							CHANNELS 3 Zrotation Yrotation Xrotation
							End Site
							{
								OFFSET -4.083176 0.000000 0.000000 
							}
						}
					}
				}
			}
		}
	}
	JOINT lThigh
	{
		OFFSET 5.308129 -1.633274 1.361059 
		CHANNELS 3 Xrotation Zrotation Yrotation
		JOINT lShin
		{
			OFFSET -2.041588 -20.007561 0.000000 
			CHANNELS 3 Xrotation Zrotation Yrotation
			JOINT lFoot
			{
				OFFSET 0.000000 -19.190928 -1.224953 
				CHANNELS 3 Xrotation Yrotation Zrotation
				End Site
				{
					OFFSET 0.000000 -2.449906 4.627600 
				}
			}
		}
	}
	JOINT rThigh
	{
		OFFSET -5.308129 -1.633274 1.361059 
		CHANNELS 3 Xrotation Zrotation Yrotation
		JOINT rShin
		{
			OFFSET 2.041588 -20.007561 0.000000 
			CHANNELS 3 Xrotation Zrotation Yrotation
			JOINT rFoot
			{
				OFFSET 0.000000 -19.190928 -1.224953 
				CHANNELS 3 Xrotation Yrotation Zrotation
				End Site
				{
					OFFSET 0.000000 -2.449906 4.627600 
				}
			}
		}
	}
}
MOTION
Frames: 13
Frame Time: 0.033333
-8.204137 51.973122 53.084118 -0.361328 -2.832031 5.791016 19.000504 -14.586992 0.381634 -8.496094 11.601563 2.804698 51.063168 8.107644 2.471410 -63.759769 1.044922 -12.080079 2.000000 -2.000000 0.000000 -76.611328 32.988281 -12.265626 -61.298645 -1.316232 -2.325540 9.776758 39.317074 10.800666 -2.000000 2.000000 0.000000 78.515625 -23.798828 -19.750032 73.548164 0.484344 -2.824131 -65.338112 -60.591209 57.249886 0.537844 17.356150 -4.864653 23.550022 -4.755842 -2.437945 -0.427226 -7.553743 -1.394438 -3.241517 -8.907031 -16.701620 15.411999 4.967910 1.480504 -1.608919 -4.542089 7.134927 
-8.725873 51.956257 53.678211 -0.361328 -2.988281 6.337891 20.119108 -14.646969 0.093487 -8.867188 11.474609 2.843646 51.063168 8.107644 2.471410 -65.322273 1.337891 -11.796875 2.000000 -2.000000 0.000000 -76.503906 32.880863 -11.918526 -61.123997 -1.465305 -2.365985 10.560392 39.627666 10.508556 -2.000000 2.000000 0.000000 77.685547 -23.242188 -18.021431 73.196594 0.494093 -2.823567 -66.234138 -60.592369 57.243629 -0.380135 18.084232 -5.302338 24.954561 -4.692844 -2.550822 2.629194 -7.177254 0.361786 -2.060842 -8.047832 -17.459793 14.392295 4.998728 1.399423 -1.349422 -4.653934 7.168376 
-9.209525 52.000694 54.269180 -0.537109 -3.183599 7.040462 21.413113 -14.703499 -0.201369 -9.414063 11.347657 2.675781 51.063168 8.107644 2.471410 -66.865234 1.806641 -11.582032 2.000000 -2.000000 0.000000 -76.142578 32.167969 -11.201171 -60.939426 -1.134968 -2.404758 11.001019 39.886292 9.317019 -2.000000 2.000000 0.000000 76.855469 -22.314451 -15.898438 72.869759 0.836020 -2.647195 -67.110672 -60.602539 56.173492 -2.401524 18.356207 -6.089682 27.572933 -4.150913 -2.984391 8.834698 -6.753495 1.721241 -0.762943 -7.072667 -17.988453 12.815372 5.052850 1.099745 -1.566619 -4.666306 7.107419 
-9.642321 51.945538 54.856792 -0.361328 -2.988281 7.548828 22.695112 -14.745237 -0.480274 -9.960938 11.240234 2.509766 51.063168 8.107644 2.471410 -68.251953 2.246094 -11.376955 2.000000 -2.000000 0.000000 -76.435547 31.533205 -11.689453 -60.939426 -1.134968 -2.404758 11.315194 39.948360 8.772458 -2.000000 2.000000 0.000000 75.693359 -21.210938 -13.583984 72.862549 0.997664 -2.735771 -67.708969 -60.990421 55.907818 -8.568382 17.218954 -8.816792 33.377296 -3.843619 -3.200356 25.275909 -3.610465 4.241504 0.458195 -6.364592 -18.044144 11.234841 5.111753 0.476937 -1.632219 -4.866089 7.616089 
-10.011481 51.843945 55.441044 0.166016 -2.822265 8.056642 23.997931 -14.791458 -0.805106 -10.332032 11.093750 2.382813 51.063168 8.107644 2.471410 -69.628906 2.685547 -11.035156 2.000000 -2.000000 0.000000 -77.324219 31.162113 -12.885570 -61.121845 -1.274966 -2.288833 10.301121 39.048779 8.511889 -2.000000 2.000000 0.000000 75.146484 -20.126953 -12.561954 73.221596 0.826837 -2.657506 -67.678169 -61.726231 57.032509 -12.176036 16.150835 -10.249956 33.937489 -4.278229 -3.202544 41.791553 0.324794 6.623087 1.276725 -5.852709 -19.109417 10.526367 5.093946 0.922897 -2.085226 -4.995665 7.272357 
-10.304259 52.049244 56.021481 0.703125 -2.470703 8.564514 25.273094 -14.911917 -0.957167 -10.878906 10.976563 2.394438 51.063168 8.107644 2.471410 -70.654297 3.261719 -10.732421 2.000000 -2.000000 0.000000 -78.535156 30.966797 -14.936380 -61.291264 -1.125786 -2.415071 8.929758 38.176479 8.250733 -2.000000 2.000000 0.000000 74.472664 -19.394531 -11.917303 73.739471 0.798155 -2.668948 -67.978592 -62.983101 58.433765 -15.070199 16.107460 -9.700338 35.357037 -4.220145 -3.126194 39.489468 -0.105921 7.887217 1.276731 -5.852709 -19.109417 10.174028 5.103374 0.865225 -2.703500 -5.164034 7.698692 
-10.507887 52.625092 56.598110 1.230469 -1.943359 8.730138 26.160521 -14.885674 -0.999467 -11.074219 10.830078 2.306523 51.063168 8.107644 2.471410 -71.162109 3.603515 -10.360716 2.000000 -2.000000 0.000000 -79.414063 30.947262 -15.966797 -61.297920 -1.256035 -2.299716 7.995547 37.768463 8.510837 -2.000000 2.000000 0.000000 73.535156 -18.417969 -11.044921 74.443161 0.770038 -2.690135 -68.574120 -64.159409 60.838272 -17.514139 16.207399 -8.405015 35.877617 -4.058521 -3.313488 18.609009 -5.857561 7.001513 1.346457 -5.993295 -18.923849 10.167018 5.119162 0.837156 -3.162576 -5.857838 7.436524 
-10.609569 52.612473 57.170677 1.230469 -1.582031 8.554417 26.899195 -14.785186 -1.212074 -11.249999 10.839845 2.453009 51.063168 8.107644 2.471410 -71.132813 3.779296 -9.726563 2.000000 -2.000000 0.000000 -79.423828 30.937502 -16.162109 -60.770290 -1.274966 -2.288833 7.940654 38.451672 8.786529 -2.000000 2.000000 0.000000 73.007813 -17.724611 -9.892579 74.618950 0.760289 -2.690701 -68.268044 -64.989151 61.634686 -17.973932 16.442112 -6.374443 33.250961 -4.205020 -3.281281 1.417376 -10.250461 3.855673 2.086732 -5.932410 -18.430372 9.999562 5.113681 1.026716 -3.419447 -6.568796 7.410250 
-10.601779 52.571564 57.736538 0.869141 -1.240234 8.036897 26.267071 -14.404350 -0.775056 -10.576172 10.439452 2.470703 51.063168 8.107644 2.471410 -69.746094 3.681640 -9.111328 2.000000 -2.000000 0.000000 -78.886719 31.279299 -15.082820 -59.726616 -1.522098 -2.333346 9.038983 39.622826 9.456817 -2.000000 2.000000 0.000000 72.421875 -16.953125 -8.284098 74.618950 0.760289 -2.690701 -68.224243 -65.124619 61.823875 -13.519051 16.116737 -3.162270 18.784281 -4.849468 -2.237834 1.665166 -12.015292 1.738846 3.042971 -6.185919 -17.964746 9.994708 5.101567 1.025908 -3.937892 -6.420521 7.465701 
-10.493733 52.550064 58.294048 0.527344 -0.878905 7.167830 24.689985 -13.817612 0.004212 -9.169922 10.009766 2.950916 51.063168 8.107644 2.471410 -67.822266 3.398438 -8.583984 2.000000 -2.000000 0.000000 -78.818359 31.767574 -13.994139 -59.019482 -1.689636 -2.186414 10.288843 40.835918 10.650498 -2.000000 2.000000 0.000000 72.031250 -16.572266 -6.633643 74.266838 0.768907 -2.670644 -67.659607 -64.914810 61.840534 -8.844311 15.219717 -0.623916 6.249170 -4.987888 -1.355143 4.550811 -12.772735 0.302732 4.027077 -6.652867 -17.515820 10.015767 4.926618 1.015418 -4.521250 -6.210124 7.090909 
-10.297882 52.485020 58.844177 -0.205078 -0.537109 6.328135 23.215197 -13.600428 0.374196 -8.291016 9.765626 3.038766 51.063168 8.107644 2.471410 -65.361328 3.232421 -7.910156 2.000000 -2.000000 0.000000 -78.457031 32.656250 -13.012309 -58.494801 -1.529011 -2.283791 11.032728 41.625095 11.524988 -2.000000 2.000000 0.000000 71.787109 -16.142578 -4.563262 73.739479 0.788405 -2.669513 -66.985138 -64.541252 60.915554 -7.703811 14.929593 -0.511578 6.948453 -4.831033 -1.376580 4.580997 -12.020474 -0.480256 5.203380 -7.235119 -16.909721 10.177947 4.710154 0.809038 -5.024527 -5.932029 7.183515 
-10.026641 52.432899 59.388050 -0.908203 -0.175781 5.273438 22.724779 -14.351055 0.253520 -8.232422 10.429688 3.300781 51.063168 8.107644 2.471410 -63.037113 3.574218 -7.011719 2.000000 -2.000000 0.000000 -78.750000 33.701172 -13.227004 -58.307308 -1.397731 -2.213221 10.687216 41.806938 11.670478 -2.000000 2.000000 0.000000 71.923828 -15.244141 -2.336551 73.030113 0.795755 -2.796340 -66.266388 -63.958675 60.542236 -6.109156 14.561693 -0.499700 7.487434 -4.832172 -1.419670 4.588707 -11.272934 -1.721183 6.131594 -7.684467 -16.464304 10.715893 4.691312 1.054891 -5.276475 -5.536983 6.963527 
-9.692437 52.424126 59.926598 -1.611328 0.166016 4.189481 22.509659 -15.658533 -0.280239 -8.525390 11.269531 3.380815 51.063168 8.107644 2.471410 -60.898438 3.935546 -6.083986 2.000000 -2.000000 0.000000 -79.394531 35.000000 -13.969009 -58.307098 -1.358167 -2.205751 10.045683 41.507370 11.559417 -2.000000 2.000000 0.000000 72.617188 -14.951173 -0.332031 72.685982 0.976469 -2.707662 -65.528183 -63.651085 59.404537 -4.919464 14.057454 -0.876786 8.198617 -4.810319 -1.495172 3.878669 -10.558713 -2.712401 6.998549 -8.435287 -16.224030 11.418703 4.672019 0.933771 -5.365270 -4.701063 6.471676 
